<svg xmlns="http://www.w3.org/2000/svg" viewBox="0 0 40 40" fill="none">
  <circle cx="20" cy="20" r="3" fill="#2563eb"/>
  <circle cx="20" cy="7" r="2.5" fill="#2563eb"/>
  <circle cx="31.3" cy="13.5" r="2.5" fill="#2563eb"/>
  <circle cx="31.3" cy="26.5" r="2.5" fill="#2563eb"/>
  <circle cx="20" cy="33" r="2.5" fill="#2563eb"/>
  <circle cx="8.7" cy="26.5" r="2.5" fill="#2563eb"/>
  <circle cx="8.7" cy="13.5" r="2.5" fill="#2563eb"/>
  <line x1="20" y1="7" x2="31.3" y2="13.5" stroke="#2563eb" stroke-width="1.5" stroke-opacity="0.6"/>
  <line x1="31.3" y1="13.5" x2="31.3" y2="26.5" stroke="#2563eb" stroke-width="1.5" stroke-opacity="0.6"/>
  <line x1="31.3" y1="26.5" x2="20" y2="33" stroke="#2563eb" stroke-width="1.5" stroke-opacity="0.6"/>
  <line x1="20" y1="33" x2="8.7" y2="26.5" stroke="#2563eb" stroke-width="1.5" stroke-opacity="0.6"/>
  <line x1="8.7" y1="26.5" x2="8.7" y2="13.5" stroke="#2563eb" stroke-width="1.5" stroke-opacity="0.6"/>
  <line x1="8.7" y1="13.5" x2="20" y2="7" stroke="#2563eb" stroke-width="1.5" stroke-opacity="0.6"/>
  <line x1="20" y1="20" x2="20" y2="7" stroke="#2563eb" stroke-width="1.5" stroke-opacity="0.4"/>
  <line x1="20" y1="20" x2="31.3" y2="13.5" stroke="#2563eb" stroke-width="1.5" stroke-opacity="0.4"/>
  <line x1="20" y1="20" x2="31.3" y2="26.5" stroke="#2563eb" stroke-width="1.5" stroke-opacity="0.4"/>
  <line x1="20" y1="20" x2="20" y2="33" stroke="#2563eb" stroke-width="1.5" stroke-opacity="0.4"/>
  <line x1="20" y1="20" x2="8.7" y2="26.5" stroke="#2563eb" stroke-width="1.5" stroke-opacity="0.4"/>
  <line x1="20" y1="20" x2="8.7" y2="13.5" stroke="#2563eb" stroke-width="1.5" stroke-opacity="0.4"/>
</svg>
